<svg xmlns="http://www.w3.org/2000/svg" xmlns:xlink="http://www.w3.org/1999/xlink" version="1.1" width="500" height="500" viewBox="0 0 500 500" xml:space="preserve">
<desc>Created with Fabric.js 3.6.3</desc>
<defs>
</defs>
<g transform="matrix(0.9876883405951377 -0.15643446504023112 0.15643446504023112 0.9876883405951377 263.2918557965012 373.37584808382655)" id="uidm0qguf66c">
<path style="stroke: rgb(45,165,69); stroke-width: 1; stroke-dasharray:; stroke-linecap: butt; stroke-dashoffset: 0; stroke-linejoin: miter; stroke-miterlimit: 4; fill: rgb(24,255,30); fill-rule: nonzero; opacity: 1;" transform=" translate(-244.14994000000002, -372.58304)" d="M 325.72113 403.5307 l 6.21792 49.46219 l -54.0013 -5.69446 l -33.78742 39.00078 l -33.7882 -39.00078 l -54.0013 5.69446 l 6.21792 -49.46219 l -42.58161 -30.9474 l 42.58161 -30.94792 l -6.21792 -49.46219 l 54.0013 5.69525 l 33.7882 -39.00157 l 33.78742 39.00157 l 54.0013 -5.69525 l -6.21792 49.46219 l 42.58161 30.94792 z" stroke-linecap="round"/>
</g>
<g transform="matrix(0.05233595624294397 0.9986295347545738 -0.9986295347545738 0.05233595624294397 252.71431399004047 237.69060984035653)" id="uidi813zo8w3">
<path style="stroke: rgb(33,160,14); stroke-width: 1; stroke-dasharray:; stroke-linecap: butt; stroke-dashoffset: 0; stroke-linejoin: miter; stroke-miterlimit: 4; fill: rgb(24,255,30); fill-rule: nonzero; opacity: 0.9212;" transform=" translate(-244.78186499999998, -256.68811999999997)" d="M 141.66663 336.33052 l -104.23598 -79.6424 l 104.23598 -79.6424 h 207.35134 l 103.11511 79.6424 l -103.11511 79.6424 z" stroke-linecap="round"/>
</g>
<g transform="matrix(0.43837114678907746 0.898794046299167 -0.898794046299167 0.43837114678907746 148.07182766288946 209.8911032188035)" id="uid40efjcya9">
<path style="stroke: rgb(33,160,14); stroke-width: 1; stroke-dasharray:; stroke-linecap: butt; stroke-dashoffset: 0; stroke-linejoin: miter; stroke-miterlimit: 4; fill: rgb(24,255,30); fill-rule: nonzero; opacity: 0.9592;" transform=" translate(-172.95621, -332.67001999999997)" d="M 137.77723 352.99528 l -35.56124 -20.32526 l 35.56124 -20.32526 h 70.74022 l 35.17898 20.32526 l -35.17898 20.32526 z" stroke-linecap="round"/>
</g>
<g transform="matrix(0.6156614753256583 0.788010753606722 -0.788010753606722 0.6156614753256583 163.18626882777295 317.0042003154047)" id="uida1xn6lqt5">
<path style="stroke: rgb(33,160,14); stroke-width: 1; stroke-dasharray:; stroke-linecap: butt; stroke-dashoffset: 0; stroke-linejoin: miter; stroke-miterlimit: 4; fill: rgb(24,255,30); fill-rule: nonzero; opacity: 0.9592;" transform=" translate(-251.639375, -367.08932999999996)" d="M 164.97951 417.15862 l -87.60181 -50.06929 l 87.60181 -50.06929 l 174.26162 0 l 86.65992 50.06929 l -86.65992 50.06929 z" stroke-linecap="round"/>
</g>
<g transform="matrix(-0.5299192642332048 0.8480480961564261 -0.8480480961564261 -0.5299192642332048 324.47220014587424 319.15176090233496)" id="uidn46pbv2yv">
<path style="stroke: rgb(33,160,14); stroke-width: 1; stroke-dasharray:; stroke-linecap: butt; stroke-dashoffset: 0; stroke-linejoin: miter; stroke-miterlimit: 4; fill: rgb(24,255,30); fill-rule: nonzero; opacity: 0.9184;" transform=" translate(-281.41743500000007, -159.72038)" d="M 194.71653 226.68501 l -87.64326 -66.96463 l 87.64326 -66.96463 h 174.3443 l 86.70077 66.96463 l -86.70077 66.96463 z" stroke-linecap="round"/>
</g>
<g transform="matrix(-0.39073112848927377 0.9205048534524403 -0.9205048534524403 -0.39073112848927377 266.0473597468544 413.0950559934022)" id="uid0nwpnkm1l">
<path style="stroke: rgb(33,160,14); stroke-width: 1; stroke-dasharray:; stroke-linecap: butt; stroke-dashoffset: 0; stroke-linejoin: miter; stroke-miterlimit: 4; fill: rgb(24,255,30); fill-rule: nonzero; opacity: 0.9184;" transform=" translate(-404.779105, -181.46726999999998)" d="M 364.99036 219.41689 l -40.22114 -37.94962 l 40.22114 -37.94962 l 80.01003 0 l 39.7886 37.94962 l -39.7886 37.94962 z" stroke-linecap="round"/>
</g>
<g transform="matrix(1 0 0 1 484.56555 14.627139999999995)" id="uidtkcqhustz">
<path style="stroke: rgb(0,0,0); stroke-width: 10; stroke-dasharray:none; stroke-linecap: butt; stroke-dashoffset: 0; stroke-linejoin: miter; stroke-miterlimit: 4; fill: rgb(255,255,255); fill-opacity: 0; fill-rule: nonzero; opacity: 1;" transform=" translate(-484.56555, -14.62714)" d="M 484.56555 14.62714" stroke-linecap="round"/>
</g>
<g transform="matrix(1 0 0 1 66.24473 225.10549)" id="uidr6gbqnq8l">
<path style="stroke: rgb(0,0,0); stroke-width: 10; stroke-dasharray:none; stroke-linecap: butt; stroke-dashoffset: 0; stroke-linejoin: miter; stroke-miterlimit: 4; fill: rgb(255,255,255); fill-opacity: 0; fill-rule: nonzero; opacity: 1;" transform=" translate(-66.24473, -225.10549)" d="M 66.24473 225.10549" stroke-linecap="round"/>
</g>
<g transform="matrix(1 0 0 1 241.52915 32.44979000000001)" id="uidb8guix7p1">
<path style="stroke: rgb(0,0,0); stroke-width: 10; stroke-dasharray:none; stroke-linecap: butt; stroke-dashoffset: 0; stroke-linejoin: miter; stroke-miterlimit: 4; fill: rgb(255,255,255); fill-opacity: 0; fill-rule: nonzero; opacity: 1;" transform=" translate(-241.52915, -32.44979)" d="M 241.52915 32.44979" stroke-linecap="round"/>
</g>
<g transform="matrix(0.9636253535904764 -0.2672567640259631 0.2672567640259631 0.9636253535904764 202.95629135262496 158.93511490185278)" id="uidvejt5g9kd">
<path style="stroke: rgb(0,112,11); stroke-width: 0; stroke-dasharray:none; stroke-linecap: butt; stroke-dashoffset: 0; stroke-linejoin: miter; stroke-miterlimit: 4; fill: rgb(33,160,14); fill-rule: nonzero; opacity: 1;" transform=" translate(-229.68960000000004, -147.38405999999998)" d="M 256.38601 176.4458 l 2.36533 -2.36533 l -55.75815 -55.75815 l -2.36533 2.36533 z" stroke-linecap="round"/>
</g>
<g transform="matrix(-0.30182488594897633 0.9533633820437448 -0.9533633820437448 -0.30182488594897633 278.6304527264043 154.82699680258753)" id="uidodjmlidcq">
<path style="stroke: rgb(0,112,11); stroke-width: 0; stroke-dasharray:none; stroke-linecap: butt; stroke-dashoffset: 0; stroke-linejoin: miter; stroke-miterlimit: 4; fill: rgb(33,160,14); fill-rule: nonzero; opacity: 1;" transform=" translate(-160.720085, -261.561675)" d="M 194.45822 298.28896 l 2.98915 -2.98915 l -70.46542 -70.46542 l -2.98915 2.98915 z" stroke-linecap="round"/>
</g>
<g transform="matrix(0.6703590444315757 0.7420368936574413 -0.7420368936574413 0.6703590444315757 238.99140038052897 104.92435072598346)" id="uidjwrmozktu">
<path style="stroke: rgb(0,112,11); stroke-width: 0; stroke-dasharray:none; stroke-linecap: butt; stroke-dashoffset: 0; stroke-linejoin: miter; stroke-miterlimit: 4; fill: rgb(33,160,14); fill-rule: nonzero; opacity: 1;" transform=" translate(-136.839925, -167.86578500000002)" d="M 184.91306 220.1982 l 4.25928 -4.25928 l -100.40555 -100.40555 l -4.25928 4.25928 z" stroke-linecap="round"/>
</g>
<g transform="matrix(0.775216783314335 0.6316952895722553 -0.6316952895722553 0.775216783314335 241.06305256881444 245.4352734373115)" id="uidok37ycp8n">
<path style="stroke: rgb(0,112,11); stroke-width: 0; stroke-dasharray:none; stroke-linecap: butt; stroke-dashoffset: 0; stroke-linejoin: miter; stroke-miterlimit: 4; fill: rgb(33,160,14); fill-rule: nonzero; opacity: 1;" transform=" translate(-241.29227000000003, -257.94667)" d="M 288.28104 309.09869 l 4.16325 -4.16325 l -98.14079 -98.14079 l -4.16325 4.16325 z" stroke-linecap="round"/>
</g>
<g transform="matrix(-0.8282884944224804 0.5603018561519679 -0.5603018561519679 -0.8282884944224804 352.6147628853583 215.75978558951107)" id="uidh7mjg23yc">
<path style="stroke: rgb(0,112,11); stroke-width: 0; stroke-dasharray:none; stroke-linecap: butt; stroke-dashoffset: 0; stroke-linejoin: miter; stroke-miterlimit: 4; fill: rgb(33,160,14); fill-rule: nonzero; opacity: 1;" transform=" translate(-161.065105, -228.275215)" d="M 185.87971 255.28849 l 2.19867 -2.19867 l -51.82788 -51.82788 l -2.19867 2.19867 z" stroke-linecap="round"/>
</g>
<g transform="matrix(-0.9886982823075202 -0.14991900000386554 0.14991900000386554 -0.9886982823075202 404.5434372070098 249.05574297103612)" id="uidkkbk7rfb3">
<path style="stroke: rgb(0,112,11); stroke-width: 0; stroke-dasharray:none; stroke-linecap: butt; stroke-dashoffset: 0; stroke-linejoin: miter; stroke-miterlimit: 4; fill: rgb(33,160,14); fill-rule: nonzero; opacity: 1;" transform=" translate(-114.966355, -275.51195500000006)" d="M 139.78096 302.52523 l 2.19867 -2.19867 l -51.82788 -51.82788 l -2.19867 2.19867 z" stroke-linecap="round"/>
</g>
<g transform="matrix(0.28691805174760565 0.9579551302547308 -0.9579551302547308 0.28691805174760565 399.1758370564544 196.80898383464017)" id="uidqf7qrbzhw">
<path style="stroke: rgb(0,112,11); stroke-width: 0; stroke-dasharray:none; stroke-linecap: butt; stroke-dashoffset: 0; stroke-linejoin: miter; stroke-miterlimit: 4; fill: rgb(33,160,14); fill-rule: nonzero; opacity: 1;" transform=" translate(-246.78024499999998, -101.20038500000001)" d="M 267.46982 124.33394 l 1.83311 -1.88286 l -43.21226 -44.38425 l -1.83311 1.88286 z" stroke-linecap="round"/>
</g>
<g transform="matrix(0.28691805174760565 0.9579551302547308 -0.9579551302547308 0.28691805174760565 368.6103103843143 256.2470770867419)" id="uidhu0oxr920">
<path style="stroke: rgb(0,112,11); stroke-width: 0; stroke-dasharray:none; stroke-linecap: butt; stroke-dashoffset: 0; stroke-linejoin: miter; stroke-miterlimit: 4; fill: rgb(33,160,14); fill-rule: nonzero; opacity: 1;" transform=" translate(-294.94947, -147.53465)" d="M 321.58551 177.31717 l 2.36007 -2.42404 l -55.63215 -57.141 l -2.36007 2.42404 z" stroke-linecap="round"/>
</g>
<g transform="matrix(0.28691805174760565 0.9579551302547308 -0.9579551302547308 0.28691805174760565 328.730100436839 327.7641815707457)" id="uid8mi1zwzxv">
<path style="stroke: rgb(0,112,11); stroke-width: 0; stroke-dasharray:none; stroke-linecap: butt; stroke-dashoffset: 0; stroke-linejoin: miter; stroke-miterlimit: 4; fill: rgb(33,160,14); fill-rule: nonzero; opacity: 1;" transform=" translate(-352.017295, -206.25765)" d="M 380.86068 238.50824 l 2.55568 -2.62483 l -60.24245 -61.87635 l -2.55568 2.62483 z" stroke-linecap="round"/>
</g>
<g transform="matrix(-0.8282884944224804 0.5603018561519679 -0.5603018561519679 -0.8282884944224804 107.3865266712292 287.8046181973298)" id="uid7g7ka2sb0">
<path style="stroke: rgb(0,112,11); stroke-width: 0; stroke-dasharray:none; stroke-linecap: butt; stroke-dashoffset: 0; stroke-linejoin: miter; stroke-miterlimit: 4; fill: rgb(33,160,14); fill-rule: nonzero; opacity: 1;" transform=" translate(-404.551685, -306.003145)" d="M 429.36629 333.01642 l 2.19867 -2.19867 l -51.82788 -51.82788 l -2.19867 2.19867 z" stroke-linecap="round"/>
</g>
<g transform="matrix(-0.6634500474536225 -0.7482205787959766 0.7482205787959766 -0.6634500474536225 147.52991420465187 258.008200503931)" id="uid927dz23zq">
<path style="stroke: rgb(0,112,11); stroke-width: 0; stroke-dasharray:none; stroke-linecap: butt; stroke-dashoffset: 0; stroke-linejoin: miter; stroke-miterlimit: 4; fill: rgb(33,160,14); fill-rule: nonzero; opacity: 1;" transform=" translate(-327.58409500000005, -163.741135)" d="M 354.20496 192.72067 l 2.35867 -2.35867 l -55.6004 -55.6004 l -2.35867 2.35867 z" stroke-linecap="round"/>
</g>
<g transform="matrix(-0.9963060581018306 0.08587338696937329 -0.08587338696937329 -0.9963060581018306 181.4127642447627 324.9544884809651)" id="uidb6jg42dbg">
<path style="stroke: rgb(0,112,11); stroke-width: 0; stroke-dasharray:none; stroke-linecap: butt; stroke-dashoffset: 0; stroke-linejoin: miter; stroke-miterlimit: 4; fill: rgb(33,160,14); fill-rule: nonzero; opacity: 1;" transform=" translate(-342.13595, -184.69699000000003)" d="M 376.76252 222.39151 l 3.06795 -3.06795 l -72.32109 -72.32109 l -3.06795 3.06795 z" stroke-linecap="round"/>
</g>
<g transform="matrix(-0.8613723855113313 0.5079740283503857 -0.5079740283503857 -0.8613723855113313 237.0698485540994 439.89859998904046)" id="uidyxa1fyzxy">
<path style="stroke: rgb(0,112,11); stroke-width: 0; stroke-dasharray:none; stroke-linecap: butt; stroke-dashoffset: 0; stroke-linejoin: miter; stroke-miterlimit: 4; fill: rgb(33,160,14); fill-rule: nonzero; opacity: 1;" transform=" translate(-373.20718999999997, -99.99146999999999)" d="M 390.37372 118.67899 l 1.52099 -1.52099 l -35.85405 -35.85405 l -1.52099 1.52099 z" stroke-linecap="round"/>
</g>
<g transform="matrix(-0.9991952513917398 0.04011046741435257 -0.04011046741435257 -0.9991952513917398 273.38163429231594 455.4134632257884)" id="uidir995iz67">
<path style="stroke: rgb(0,112,11); stroke-width: 0; stroke-dasharray:none; stroke-linecap: butt; stroke-dashoffset: 0; stroke-linejoin: miter; stroke-miterlimit: 4; fill: rgb(33,160,14); fill-rule: nonzero; opacity: 1;" transform=" translate(-252.32983499999997, -46.901955)" d="M 262.16312 57.60651 l 0.87127 -0.87127 l -20.53784 -20.53784 l -0.87127 0.87127 z" stroke-linecap="round"/>
</g>
<g transform="matrix(-0.4672717121487818 -0.8841137636218237 0.8841137636218237 -0.4672717121487818 272.09014474639366 415.09889095910864)" id="uid373blse30">
<path style="stroke: rgb(0,112,11); stroke-width: 0; stroke-dasharray:none; stroke-linecap: butt; stroke-dashoffset: 0; stroke-linejoin: miter; stroke-miterlimit: 4; fill: rgb(33,160,14); fill-rule: nonzero; opacity: 1;" transform=" translate(-107.77186500000002, -186.649905)" d="M 129.94048 210.78273 l 1.96421 -1.96421 l -46.30144 -46.30144 l -1.96421 1.96421 z" stroke-linecap="round"/>
</g>
<g transform="matrix(-0.9923684912580644 0.12330765409411121 -0.12330765409411121 -0.9923684912580644 264.01788441860174 372.03697910107024)" id="uidi9j1nkvp7">
<path style="stroke: rgb(0,112,11); stroke-width: 0; stroke-dasharray:none; stroke-linecap: butt; stroke-dashoffset: 0; stroke-linejoin: miter; stroke-miterlimit: 4; fill: rgb(33,160,14); fill-rule: nonzero; opacity: 1;" transform=" translate(-268.41693499999997, -130.973065)" d="M 282.73062 146.55485 l 1.2681 -1.2681 l -29.89547 -29.89547 l -1.2681 1.2681 z" stroke-linecap="round"/>
</g>
<g transform="matrix(-0.7854575978900561 0.6189154723520676 -0.6189154723520676 -0.7854575978900561 299.77122565858247 388.45940761298664)" id="uidz2q6yjqtn">
<path style="stroke: rgb(0,112,11); stroke-width: 0; stroke-dasharray:none; stroke-linecap: butt; stroke-dashoffset: 0; stroke-linejoin: miter; stroke-miterlimit: 4; fill: rgb(33,160,14); fill-rule: nonzero; opacity: 1;" transform=" translate(-311.39073499999995, -118.306195)" d="M 324.07244 132.11158 l 1.12368 -1.12368 l -26.48709 -26.48709 l -1.12368 1.12368 z" stroke-linecap="round"/>
</g>
</svg>